<svg width="800" height="300" xmlns="http://www.w3.org/2000/svg">
    <ellipse rx="80" ry="20" cx="30%" cy="85%"  fill="#d3d3d3"></ellipse>
    <ellipse rx="80" ry="20" cx="60%" cy="85%"  fill="#d3d3d3"></ellipse>
    <ellipse rx="80" ry="25" cx="10%" cy="55%"  fill="#ffa500"></ellipse>
    <polygon points="5,165 25,180 25,150" fill="white"></polygon>
    <polygon points="200,70 160,110 150,70" fill="#ffa500"></polygon>
    <polygon points="205,75 165,115 155,75" fill="black"></polygon>
    <polygon points="330,70 325,105 300,70" fill="#ffa500"></polygon>
    <polygon points="325,75 320,105 300,75" fill="#black"></polygon>
    <circle r="100" cx="30%" cy="50%" fill="#ffa500"></circle>
    <circle r="36" cx="29%" cy="40%" fill="white"></circle>
    <circle r="36" cx="35%" cy="40%" fill="white"></circle>
    <circle r="9" cx="36%" cy="40%" fill="black"></circle>
    <circle r="9" cx="30%" cy="40%" fill="black"></circle>
    <circle r="12" cx="32%" cy="51%" fill="black"></circle>
    <ellipse rx="18" ry="10" cx="30%" cy="65%"  fill="#dc143c"></ellipse>
    <circle r="100" cx="60%" cy="50%" fill="#ffd700"></circle>
    <circle r="36" cx="55%" cy="40%" fill="white"></circle>
    <circle r="36" cx="61%" cy="40%" fill="white"></circle>
    <circle r="9" cx="53%" cy="40%" fill="black"></circle>
    <circle r="9" cx="60%" cy="40%" fill="black"></circle>
    <ellipse rx="10" ry="18" cx="58%" cy="65%"  fill="#dc143c"></ellipse>
</svg>